<svg width="1024" height="1600" viewBox="0 0 1024 1600" xmlns="http://www.w3.org/2000/svg">
  <defs>
    <linearGradient id="bg" x1="0%" y1="0%" x2="100%" y2="100%">
      <stop offset="0%" stop-color="#0b1217" />
      <stop offset="55%" stop-color="#0f1f24" />
      <stop offset="100%" stop-color="#10272a" />
    </linearGradient>
    <radialGradient id="glowTop" cx="22%" cy="18%" r="40%">
      <stop offset="0%" stop-color="#10b98133" />
      <stop offset="100%" stop-color="#10b98100" />
    </radialGradient>
    <radialGradient id="glowBottom" cx="78%" cy="84%" r="42%">
      <stop offset="0%" stop-color="#34d3992b" />
      <stop offset="100%" stop-color="#34d39900" />
    </radialGradient>
    <linearGradient id="brand" x1="0%" y1="0%" x2="100%" y2="0%">
      <stop offset="0%" stop-color="#f8fafc" />
      <stop offset="100%" stop-color="#86efac" />
    </linearGradient>
  </defs>

  <rect width="1024" height="1600" fill="url(#bg)" />
  <rect width="1024" height="1600" fill="url(#glowTop)" />
  <rect width="1024" height="1600" fill="url(#glowBottom)" />

  <g fill="#7dd3a833" font-size="86" font-family="'Noto Sans Devanagari', 'Noto Sans Bengali', 'Noto Sans Tamil', sans-serif">
    <text x="80" y="120">आ</text>
    <text x="250" y="120">ঁ</text>
    <text x="430" y="120">க</text>
    <text x="650" y="120">भ</text>
    <text x="870" y="120">ఆ</text>
    <text x="120" y="280">ঞ</text>
    <text x="350" y="280">৩</text>
    <text x="560" y="280">ఉ</text>
    <text x="760" y="280">ড</text>
    <text x="920" y="280">ஒ</text>
    <text x="60" y="430">২</text>
    <text x="250" y="430">৩</text>
    <text x="430" y="430">জ</text>
    <text x="680" y="430">ய</text>
    <text x="870" y="430">ణ</text>
    <text x="80" y="600">সে</text>
    <text x="250" y="600">উ</text>
    <text x="430" y="600">৬</text>
    <text x="620" y="600">౫</text>
    <text x="840" y="600">q</text>
    <text x="80" y="980">দ</text>
    <text x="260" y="980">৬</text>
    <text x="430" y="980">৮</text>
    <text x="600" y="980">జ</text>
    <text x="780" y="980">உ</text>
    <text x="920" y="980">શ</text>
    <text x="120" y="1180">খ</text>
    <text x="320" y="1180">ঊ</text>
    <text x="510" y="1180">জ</text>
    <text x="690" y="1180">ధ</text>
    <text x="890" y="1180">௫</text>
    <text x="60" y="1360">अ</text>
    <text x="260" y="1360">य</text>
    <text x="450" y="1360">ঐ</text>
    <text x="650" y="1360">ਊ</text>
    <text x="860" y="1360">ભ</text>
    <text x="80" y="1520">છ</text>
    <text x="280" y="1520">ক</text>
    <text x="500" y="1520">ஒ</text>
    <text x="700" y="1520">ঞ</text>
    <text x="880" y="1520">ష</text>
  </g>

  <g text-anchor="middle">
    <text
      x="512"
      y="760"
      fill="url(#brand)"
      font-size="132"
      font-weight="800"
      font-family="'Poppins', 'Segoe UI', Arial, sans-serif"
      letter-spacing="-2"
    >
      MedVani
    </text>
    <text
      x="512"
      y="850"
      fill="#e2e8f0"
      font-size="66"
      font-weight="500"
      font-family="'Poppins', 'Segoe UI', Arial, sans-serif"
    >
      Indian Health AI Chatbot
    </text>
  </g>
</svg>
